<svg width="591" height="587" viewBox="0 0 591 587" fill="none" xmlns="http://www.w3.org/2000/svg">
<path d="M364.139 218.595C334.073 152.296 312.394 151.283 192.262 148.016C81.7521 134.502 103.543 229.5 117.165 280.032C152.658 411.7 305.786 438.681 362.723 461.185C412.24 467.13 459.287 453.294 469.919 362.562C481.816 261.036 401.721 301.468 364.139 218.595Z" fill="#00AA8B" stroke="black"/>
<path d="M382.815 214.309C352.749 148.01 331.07 146.997 210.939 143.73C100.428 130.216 122.219 225.214 135.841 275.746C171.335 407.414 324.462 434.395 381.4 456.899C430.917 462.844 477.963 449.008 488.595 358.276C500.492 256.75 420.397 297.182 382.815 214.309Z" stroke="black"/>
</svg>
