<svg width="515" height="326" viewBox="0 0 515 326" fill="none" xmlns="http://www.w3.org/2000/svg">
<path d="M308.772 58.059C246.249 12.3455 225.244 21.8567 110.055 76.6943C-1.31563 117.6 39.127 196.186 78 235.5C179.288 337.939 366.886 275.411 432.263 268.442C482.109 250.013 519.442 225.317 482.8 137.843C441.799 39.9616 386.926 115.201 308.772 58.059Z" stroke="black"/>
<path d="M285.772 52.059C223.249 6.34555 202.244 15.8567 87.0552 70.6943C-24.3156 111.6 16.127 190.186 55 229.5C156.288 331.939 343.886 269.411 409.263 262.442C459.109 244.013 496.442 219.317 459.8 131.843C418.799 33.9616 363.926 109.201 285.772 52.059Z" fill="#F3EDE7" stroke="black"/>
</svg>
