<svg width="480" height="431" viewBox="0 0 480 431" fill="none" xmlns="http://www.w3.org/2000/svg">
<path d="M286.606 298.53C353.583 298.469 335.667 276.979 382.824 182.951C435.06 100.221 328.195 121.26 280.581 113.943C156.517 94.8748 202.523 153.055 162.515 190.109C139.203 227.218 51.8574 264.503 124.379 305.451C205.529 351.269 202.885 298.608 286.606 298.53Z" fill="#CD9D24" stroke="black"/>
<path d="M267.195 290.903C334.172 290.841 316.256 269.352 363.413 175.323C415.649 92.5926 308.783 113.633 261.17 106.315C137.105 87.2469 183.111 145.427 143.104 182.481C119.791 219.591 32.4458 256.875 104.968 297.823C186.117 343.642 183.474 290.98 267.195 290.903Z" stroke="black"/>
</svg>
