<svg width="43" height="42" viewBox="0 0 43 42" fill="none" xmlns="http://www.w3.org/2000/svg">
<rect x="1" y="26" width="8" height="41" rx="4" transform="rotate(-90 1 26)" fill="#00AA8B"/>
<path d="M17.8989 6.16847C18.0338 3.82847 19.9707 2 22.3146 2V2C24.8575 2 26.8767 4.13896 26.7303 6.6776L25.8608 21.7619V37.5696C25.8608 40.0165 23.8772 42 21.4304 42V42C18.9835 42 17 40.0165 17 37.5696V21.7619L17.8989 6.16847Z" fill="#00AA8B"/>
<path d="M4.66524 16.3512H17.4777L17.2337 24.6488H4.66524C3.56703 24.5268 2.72508 23.9167 2.46882 23.6726C0.118019 21.4339 0.946075 18.6568 2.46882 17.3274C3.16764 16.7173 3.68905 16.4732 4.66524 16.3512Z" stroke="#545454"/>
<path d="M38.3148 24.6917L25.7708 24.6917L26.0149 16.3947L38.2164 16.3947C39.3159 16.5037 40.1651 17.1037 40.4242 17.3447C42.8014 19.5554 42.0063 22.3421 40.4995 23.6895C39.8079 24.3079 39.2894 24.5581 38.3148 24.6917Z" stroke="#545454"/>
<path d="M25.3936 20.2289L25.3928 20.2424V20.256V36.7292C25.3928 38.8117 23.7046 40.5 21.622 40.5C19.5394 40.5 17.8512 38.8117 17.8512 36.7292V20.2695L18.73 4.06077C18.8382 2.06377 20.4891 0.5 22.489 0.5C24.6482 0.5 26.365 2.31234 26.2481 4.46837L25.3936 20.2289Z" stroke="#545454"/>
</svg>
